<svg width="80" height="80" viewBox="0 0 80 80" fill="none" xmlns="http://www.w3.org/2000/svg">
<circle cx="39.5183" cy="39.5183" r="18.9001" fill="#F2E8B0"/>
<path d="M70.7092 63.7869C72.5607 61.4108 71.6549 58.0453 69.0584 56.5181C66.4188 54.9654 63.0527 55.9229 61.0458 58.236C57.1492 62.7274 51.8423 65.9621 45.8143 67.2511C42.8419 67.8866 40.3774 70.3052 40.3774 73.3447C40.3774 76.4634 42.9553 79.0126 46.032 78.5024C56.0204 76.8458 64.7435 71.4434 70.7092 63.7869Z" fill="#F2E8B0"/>
<path d="M79.0366 39.5183C79.0366 30.8073 76.2182 22.7546 71.4434 16.2224C69.6353 13.7487 66.1044 13.6513 63.8276 15.702C61.37 17.9155 61.3665 21.7343 63.2004 24.4868C66.1496 28.9133 67.8684 34.2299 67.8684 39.9479C67.8684 42.1427 67.6152 44.2783 67.1363 46.3272C66.4825 49.1244 67.4411 52.1936 69.9385 53.613C72.7673 55.2207 76.4056 54.0968 77.3481 50.9825C78.4462 47.3541 79.0366 43.5051 79.0366 39.5183Z" fill="#F2E8B0"/>
<path d="M60.8834 14.4415C63.4769 12.0254 63.4376 7.85948 60.4318 5.9811C54.3661 2.19063 47.198 -9.53674e-07 39.5183 -9.53674e-07C32.0717 -9.53674e-07 25.1061 2.05968 19.1602 5.64042C15.8776 7.61726 15.9339 12.1523 18.858 14.6288C21.1341 16.5565 24.4207 16.5482 27.066 15.1701C30.9201 13.1623 35.3014 12.0273 39.9479 12.0273C44.5911 12.0273 48.9695 13.1607 52.8217 15.166C55.4427 16.5303 58.7215 16.4557 60.8834 14.4415Z" fill="#F2E8B0"/>
<path d="M12.0273 39.9479C12.0273 34.4557 13.6131 29.3338 16.3518 25.0153C18.2755 21.9818 18.1721 17.7965 15.3934 15.5203C12.9831 13.546 9.41778 13.7234 7.58055 16.2397C2.81348 22.7689 0 30.815 0 39.5183C0 43.4357 0.569981 47.2199 1.63153 50.7926C2.59961 54.0506 6.36398 55.2832 9.37734 53.7109C12.1777 52.2498 13.2954 48.874 12.6383 45.7844C12.238 43.902 12.0273 41.9496 12.0273 39.9479Z" fill="#F2E8B0"/>
<path d="M18.9557 58.3572C16.8547 55.9634 13.3977 54.9026 10.5944 56.4147C7.68904 57.9818 6.62476 61.6742 8.69201 64.2478C14.6262 71.6355 23.1613 76.8448 32.9077 78.4862C36.0362 79.013 38.6591 76.4192 38.6591 73.2467C38.6591 70.2213 36.2533 67.7918 33.3139 67.0755C27.6569 65.6969 22.6749 62.5949 18.9557 58.3572Z" fill="#F2E8B0"/>
</svg>
